<?xml version="1.0" encoding="UTF-8"?>
<svg version="1.1" xmlns="http://www.w3.org/2000/svg" viewBox="0 0 500 281" width="500" height="281">
<path d="M0 0 C41.58 0 83.16 0 126 0 C126 10.89 126 21.78 126 33 C79.965 33.495 79.965 33.495 33 34 C33 64.36 33 94.72 33 126 C22.11 126 11.22 126 0 126 C0 84.42 0 42.84 0 0 Z " fill="#000000" transform="translate(8,77)"/>
<path d="M0 0 C10.56 0 21.12 0 32 0 C32 26.07 32 52.14 32 79 C5.93 79 -20.14 79 -47 79 C-47 68.44 -47 57.88 -47 47 C-31.49 47 -15.98 47 0 47 C0 31.49 0 15.98 0 0 Z " fill="#000000" transform="translate(102,124)"/>
<path d="M0 0 C5.77919187 4.262154 7.83220778 10.12588264 9.1875 16.90234375 C3.9075 16.90234375 -1.3725 16.90234375 -6.8125 16.90234375 C-7.4725 15.25234375 -8.1325 13.60234375 -8.8125 11.90234375 C-12.98359411 8.94221245 -17.91936309 9.29864504 -22.8125 9.90234375 C-26.08526097 11.43427442 -27.27457914 12.76532671 -28.80859375 16.0078125 C-31.08524821 22.37232653 -31.33405477 28.31929048 -29.8125 34.90234375 C-27.60793763 39.31146849 -25.39209776 41.98530283 -20.8125 43.90234375 C-15.61074752 44.46980766 -12.20694602 43.76384348 -7.8125 40.90234375 C-7.1525 39.58234375 -6.4925 38.26234375 -5.8125 36.90234375 C-9.1125 36.57234375 -12.4125 36.24234375 -15.8125 35.90234375 C-15.8125 31.94234375 -15.8125 27.98234375 -15.8125 23.90234375 C-7.2325 23.90234375 1.3475 23.90234375 10.1875 23.90234375 C10.1875 34.79234375 10.1875 45.68234375 10.1875 56.90234375 C6.2275 56.90234375 2.2675 56.90234375 -1.8125 56.90234375 C-2.3075 53.93234375 -2.3075 53.93234375 -2.8125 50.90234375 C-3.67875 51.68609375 -4.545 52.46984375 -5.4375 53.27734375 C-10.26995027 57.25369561 -15.14217349 58.39424758 -21.3203125 58.20703125 C-29.35136822 57.22517804 -35.70336316 54.16556241 -41.15625 48.1875 C-46.98916009 40.1397349 -48.64523607 30.46522541 -47.57421875 20.73828125 C-46.17164779 12.71954223 -42.35118288 5.56548919 -35.9375 0.46484375 C-24.39753773 -7.22120659 -11.89381909 -7.20293786 0 0 Z " fill="#000000" transform="translate(209.8125,81.09765625)"/>
<path d="M0 0 C5.28 0 10.56 0 16 0 C19.41867963 8.05391643 21.90759701 16.20102479 24.25 24.625 C24.6166877 25.92852611 24.98387211 27.23191261 25.3515625 28.53515625 C26.23924701 31.68877229 27.12193493 34.84369477 28 38 C28.32798584 36.88439697 28.65597168 35.76879395 28.99389648 34.61938477 C30.20760625 30.49423607 31.4255392 26.37034452 32.64477539 22.24682617 C33.17262865 20.45940807 33.69932435 18.67164772 34.22485352 16.88354492 C34.97891559 14.31859674 35.73708466 11.75489422 36.49609375 9.19140625 C36.73154404 8.3872377 36.96699432 7.58306915 37.20957947 6.75453186 C38.88612829 1.11387171 38.88612829 1.11387171 40 0 C42.53049402 -0.07313567 45.03304837 -0.09247527 47.5625 -0.0625 C48.62887695 -0.05573242 48.62887695 -0.05573242 49.71679688 -0.04882812 C51.47790013 -0.03700864 53.23896036 -0.01907263 55 0 C54.37209177 6.58315269 52.33361888 12.52677225 50.21875 18.76953125 C49.84520386 19.88688156 49.47165771 21.00423187 49.08679199 22.15544128 C48.29942425 24.5071525 47.50920478 26.85791064 46.71630859 29.20776367 C45.49895899 32.8155852 44.28972669 36.42604601 43.08203125 40.03710938 C42.31557065 42.32307313 41.54865932 44.60888581 40.78125 46.89453125 C40.41769409 47.97781204 40.05413818 49.06109283 39.67956543 50.17720032 C39.34251587 51.17551376 39.00546631 52.17382721 38.65820312 53.20239258 C38.36143677 54.08284744 38.06467041 54.96330231 37.75891113 55.87043762 C37 58 37 58 36 60 C30.72 60 25.44 60 20 60 C17.10592272 52.9377436 14.51362371 45.83605114 12.109375 38.59375 C11.75989807 37.54723267 11.41042114 36.50071533 11.050354 35.42248535 C10.31953069 33.23136658 9.59019881 31.03974984 8.86230469 28.84765625 C7.74343811 25.48025096 6.61811031 22.11505168 5.4921875 18.75 C4.78086472 16.61471164 4.06991367 14.47929941 3.359375 12.34375 C2.85322662 10.83137756 2.85322662 10.83137756 2.33685303 9.28845215 C2.02943176 8.35988403 1.7220105 7.43131592 1.40527344 6.47460938 C0.99701324 5.24744202 0.99701324 5.24744202 0.58050537 3.9954834 C0 2 0 2 0 0 Z " fill="#000000" transform="translate(164,143)"/>
<path d="M0 0 C3.90657109 3.1425844 5.70465387 6.47183688 6.25195312 11.37670898 C6.3305809 14.59263537 6.28672426 17.78084603 6.1875 20.99609375 C6.16945313 22.10919922 6.15140625 23.22230469 6.1328125 24.36914062 C6.08593319 27.09986021 6.02032819 29.82876761 5.9375 32.55859375 C6.9275 32.55859375 7.9175 32.55859375 8.9375 32.55859375 C8.96439216 34.03766267 8.98384621 35.51686858 9 36.99609375 C9.01160156 37.81980469 9.02320313 38.64351562 9.03515625 39.4921875 C8.9375 41.55859375 8.9375 41.55859375 7.9375 42.55859375 C2.65378111 43.09937706 -1.67429736 43.42962286 -6.25 40.55859375 C-6.848125 39.89859375 -7.44625 39.23859375 -8.0625 38.55859375 C-8.68125 39.19796875 -9.3 39.83734375 -9.9375 40.49609375 C-14.22270186 43.32432698 -17.97640716 43.76521627 -23.0625 43.55859375 C-27.66721042 42.49462657 -31.03194835 40.17194379 -34.0625 36.55859375 C-35.80737909 33.06883557 -35.48711458 29.37369141 -35.0625 25.55859375 C-33.61092437 21.89509334 -32.28459569 20.18941998 -28.76953125 18.375 C-22.06230016 15.73275745 -15.18465817 14.503243 -8.0625 13.55859375 C-8.3925 12.23859375 -8.7225 10.91859375 -9.0625 9.55859375 C-12.41708155 8.79336574 -12.41708155 8.79336574 -16.0625 8.55859375 C-18.21110073 10.06261426 -18.89802492 11.2296436 -20.0625 13.55859375 C-24.3525 13.55859375 -28.6425 13.55859375 -33.0625 13.55859375 C-32.77323865 8.73757124 -32.00830823 5.44242125 -28.625 1.84765625 C-20.67414938 -4.71179551 -8.96485266 -3.82024971 0 0 Z M-14.5625 23.93359375 C-15.3565625 24.18882813 -16.150625 24.4440625 -16.96875 24.70703125 C-19.23279079 25.4698157 -19.23279079 25.4698157 -21.0625 27.55859375 C-20.74208603 30.16139943 -20.74208603 30.16139943 -20.0625 32.55859375 C-16.03077677 33.50723451 -13.87845847 33.97525339 -10.125 32.05859375 C-7.70824003 29.61311068 -7.70824003 29.61311068 -7.75 25.80859375 C-7.853125 24.73609375 -7.95625 23.66359375 -8.0625 22.55859375 C-10.47286522 22.55859375 -12.27219479 23.18255211 -14.5625 23.93359375 Z " fill="#000000" transform="translate(257.0625,95.44140625)"/>
<path d="M0 0 C6.00122252 3.5484407 9.48189394 8.80466506 11.5625 15.375 C11.5625 18.675 11.5625 21.975 11.5625 25.375 C1.9925 25.705 -7.5775 26.035 -17.4375 26.375 C-15.06106856 31.58885173 -15.06106856 31.58885173 -11.0625 32.4375 C-7.38920013 32.76451342 -7.38920013 32.76451342 -5.16796875 30.38671875 C-1.61960547 27.77240246 0.52335561 27.9623217 4.875 28.125 C6.12925781 28.16109375 7.38351563 28.1971875 8.67578125 28.234375 C10.10470703 28.30398437 10.10470703 28.30398437 11.5625 28.375 C9.4133562 35.10960148 7.1911674 38.6979928 0.9375 42.1875 C-5.14618211 45.01047144 -10.4384448 45.57216939 -16.890625 43.640625 C-23.78416147 40.85581888 -28.56003448 36.59459917 -31.70703125 29.8125 C-33.61759289 23.43714992 -33.59295665 16.06761002 -30.875 9.9375 C-24.46738152 -0.81003028 -11.62317597 -5.30335025 0 0 Z M-16.9375 11.75 C-18.60287965 14.16052327 -18.60287965 14.16052327 -18.4375 16.375 C-13.1575 16.375 -7.8775 16.375 -2.4375 16.375 C-3.97792748 11.57195965 -3.97792748 11.57195965 -6.4375 9.375 C-12.31579098 8.56812688 -12.31579098 8.56812688 -16.9375 11.75 Z " fill="#000000" transform="translate(244.4375,160.625)"/>
<path d="M0 0 C6.48441025 3.80028962 9.95360271 8.98135663 12.2421875 16.03125 C12.6875 18.4375 12.6875 18.4375 12.6875 25.4375 C2.7875 25.4375 -7.1125 25.4375 -17.3125 25.4375 C-15.87355667 30.20740123 -15.87355667 30.20740123 -13.625 31.8125 C-10.24969951 32.72474338 -7.68161971 32.24858437 -4.3125 31.4375 C-3.6525 30.4475 -2.9925 29.4575 -2.3125 28.4375 C0.9453125 28.14453125 0.9453125 28.14453125 4.8125 28.25 C6.73449219 28.29060547 6.73449219 28.29060547 8.6953125 28.33203125 C9.68273437 28.36683594 10.67015625 28.40164062 11.6875 28.4375 C10.86480214 33.88787329 8.76980251 36.81831584 4.6875 40.4375 C-1.1999421 44.28006717 -7.37518069 45.65736502 -14.3125 44.4375 C-21.60065965 41.94082723 -26.6774945 38.49328292 -30.2734375 31.59375 C-33.03810493 25.20204181 -33.3295211 18.8635633 -31.125 12.25 C-28.73959609 6.72069968 -25.59048511 2.82188168 -20.1875 0.0625 C-13.58434844 -2.55239197 -6.56923776 -2.89598077 0 0 Z M-15.75 11.25 C-17.6031191 13.39632896 -17.6031191 13.39632896 -17.3125 16.4375 C-12.3625 16.4375 -7.4125 16.4375 -2.3125 16.4375 C-2.6425 14.7875 -2.9725 13.1375 -3.3125 11.4375 C-7.60637193 8.57491871 -11.47745311 8.07297796 -15.75 11.25 Z " fill="#000000" transform="translate(438.3125,160.5625)"/>
<path d="M0 0 C6.89256961 4.05362188 10.10493979 9.331525 12.2421875 16.91015625 C12.6875 19.4375 12.6875 19.4375 12.6875 25.4375 C2.7875 25.7675 -7.1125 26.0975 -17.3125 26.4375 C-14.98998574 31.32245525 -14.98998574 31.32245525 -12.3125 32.4375 C-9.3967309 32.85452122 -9.3967309 32.85452122 -6.3125 32.4375 C-5.73757813 31.77621094 -5.16265625 31.11492187 -4.5703125 30.43359375 C-1.39755485 27.62861251 0.77849035 28.03346261 4.9375 28.1875 C6.20078125 28.22359375 7.4640625 28.2596875 8.765625 28.296875 C10.21195312 28.36648437 10.21195312 28.36648437 11.6875 28.4375 C10.89450564 33.86717903 8.62598053 36.74574562 4.6875 40.4375 C-1.8339031 44.35034186 -8.09356541 45.41492933 -15.5859375 44.01171875 C-22.27974498 42.14978936 -26.89674201 38.5812557 -30.41015625 32.5546875 C-33.25362592 26.02131998 -33.3640178 18.83986787 -31.0625 12.125 C-28.20617701 5.62979978 -24.49266509 2.36679995 -18.09765625 -0.609375 C-12.00375005 -2.69480714 -5.92031381 -2.59366129 0 0 Z M-15.6875 11.25 C-17.48316872 13.42971829 -17.48316872 13.42971829 -18.3125 16.4375 C-13.0325 16.4375 -7.7525 16.4375 -2.3125 16.4375 C-3.85292748 11.63445965 -3.85292748 11.63445965 -6.3125 9.4375 C-10.29394156 8.9951176 -12.44366678 8.77444307 -15.6875 11.25 Z " fill="#000000" transform="translate(325.3125,94.5625)"/>
<path d="M0 0 C4.62570729 2.05586991 6.98710232 4.71800827 9.18408203 9.27148438 C11.02540308 15.42905591 10.39818895 22.13067129 10.25 28.5 C10.22990494 30.00518458 10.21165948 31.51039505 10.1953125 33.015625 C10.15497519 36.67825313 10.07666244 40.33723908 10 44 C5.05 44 0.1 44 -5 44 C-5.04898437 41.92976563 -5.09796875 39.85953125 -5.1484375 37.7265625 C-5.20405689 35.72426441 -5.25974397 33.72196754 -5.31738281 31.71972656 C-5.35569327 30.32691428 -5.39054259 28.93400235 -5.421875 27.54101562 C-5.46747907 25.54013692 -5.52651623 23.53957854 -5.5859375 21.5390625 C-5.63306885 19.73236084 -5.63306885 19.73236084 -5.68115234 17.88916016 C-5.70915226 14.8739982 -5.70915226 14.8739982 -8 13 C-11.56592619 13.16417032 -11.56592619 13.16417032 -15 14 C-16.39560045 16.79120091 -16.21808288 19.20205692 -16.31640625 22.3203125 C-16.35830078 23.57714844 -16.40019531 24.83398438 -16.44335938 26.12890625 C-16.48267578 27.44761719 -16.52199219 28.76632813 -16.5625 30.125 C-16.60569512 31.46485751 -16.64930973 32.80470156 -16.69335938 34.14453125 C-16.7997091 37.4295562 -16.90038317 40.71476398 -17 44 C-21.95 44 -26.9 44 -32 44 C-32 29.81 -32 15.62 -32 1 C-27.38 1 -22.76 1 -18 1 C-17.67 1.99 -17.34 2.98 -17 4 C-16.05125 3.34 -15.1025 2.68 -14.125 2 C-9.50873996 -0.62181098 -5.18855363 -0.82330768 0 0 Z " fill="#000000" transform="translate(291,159)"/>
<path d="M0 0 C4.95 0 9.9 0 15 0 C15.33 10.23 15.66 20.46 16 31 C18.64 31 21.28 31 24 31 C27.47995891 27.52004109 27.1394492 22.989 27.31640625 18.26171875 C27.35830078 17.19501953 27.40019531 16.12832031 27.44335938 15.02929688 C27.48267578 13.92650391 27.52199219 12.82371094 27.5625 11.6875 C27.60568359 10.56537109 27.64886719 9.44324219 27.69335938 8.28710938 C27.79914711 5.52487415 27.90004983 2.76245261 28 0 C32.62 0 37.24 0 42 0 C42 14.19 42 28.38 42 43 C37.38 43 32.76 43 28 43 C27.67 42.34 27.34 41.68 27 41 C26.01 41.66 25.02 42.32 24 43 C19.72840949 45.4248827 16.8761913 45.54179903 12 45 C7.30215919 43.28348124 4.72413956 41.18350004 2 37 C0.1399405 32.40986652 -0.23609774 28.56782601 -0.1953125 23.6328125 C-0.1924826 22.95322479 -0.18965271 22.27363708 -0.18673706 21.57345581 C-0.17562964 19.42378392 -0.15054391 17.27454386 -0.125 15.125 C-0.11495795 13.65886023 -0.10583425 12.19271386 -0.09765625 10.7265625 C-0.07743104 7.15074542 -0.03826713 3.57585046 0 0 Z " fill="#000000" transform="translate(332,160)"/>
<path d="M0 0 C3.66142136 2.8654602 4.83444526 4.22316624 5.8125 8.8125 C5.874375 9.864375 5.93625 10.91625 6 12 C1.71 12 -2.58 12 -7 12 C-7.66 10.68 -8.32 9.36 -9 8 C-11.64 8 -14.28 8 -17 8 C-17.33 8.99 -17.66 9.98 -18 11 C-17.17592651 11.18792114 -17.17592651 11.18792114 -16.33520508 11.37963867 C-13.8228995 11.96368019 -11.31807844 12.57526894 -8.8125 13.1875 C-7.94818359 13.38408203 -7.08386719 13.58066406 -6.19335938 13.78320312 C-0.79473551 15.127688 2.40540833 16.50142191 6 21 C8.23630307 24.76105516 8.22422425 27.86852786 7.53515625 32.07421875 C6.3190244 36.45051803 3.80947945 38.52780365 0 40.75 C-7.90685207 44.0445217 -15.9968892 43.98051039 -24.0234375 40.98828125 C-28.15046463 38.92476768 -30.49596877 35.75604684 -33 32 C-33 30.35 -33 28.7 -33 27 C-28.38 27 -23.76 27 -19 27 C-18.34 28.32 -17.68 29.64 -17 31 C-14.26094655 32.36952673 -12.02912668 32.12621361 -9 32 C-8.01 31.505 -8.01 31.505 -7 31 C-7.33 29.68 -7.66 28.36 -8 27 C-9.15757812 26.76925781 -10.31515625 26.53851563 -11.5078125 26.30078125 C-13.04707299 25.97228054 -14.58612488 25.64280132 -16.125 25.3125 C-17.26582031 25.08916992 -17.26582031 25.08916992 -18.4296875 24.86132812 C-23.88693847 23.66167382 -27.01503846 21.94151181 -31 18 C-32.73704155 14.5259169 -32.46041616 10.79843331 -32 7 C-29.77385782 2.54771564 -27.48981614 0.13266267 -23 -2 C-15.42834623 -4.35892481 -6.82824926 -4.04120875 0 0 Z " fill="#000000" transform="translate(371,96)"/>
<path d="M0 0 C3.52421089 2.14023966 5.54936377 4.64765937 7.375 8.375 C7.46875 11.06640625 7.46875 11.06640625 7.375 13.375 C5.43872231 13.48307131 3.50072244 13.5606225 1.5625 13.625 C-0.05591797 13.69460937 -0.05591797 13.69460937 -1.70703125 13.765625 C-4.625 13.375 -4.625 13.375 -6.2578125 11.38671875 C-6.70898438 10.72285156 -7.16015625 10.05898437 -7.625 9.375 C-10.50820917 8.64991571 -12.59757312 9.03861924 -15.625 9.375 C-16.615 10.86 -16.615 10.86 -17.625 12.375 C-16.39523437 12.61734375 -15.16546875 12.8596875 -13.8984375 13.109375 C-12.26548232 13.4472278 -10.63267754 13.78580808 -9 14.125 C-7.78763672 14.36089844 -7.78763672 14.36089844 -6.55078125 14.6015625 C-0.37622906 15.90675239 4.09837551 17.64305061 8.25 22.625 C9.74766385 26.28595608 10.02074943 29.5156975 9.375 33.375 C7.05158981 38.76108726 3.39663596 41.10245138 -1.77734375 43.45703125 C-8.45304158 45.60900517 -15.07396501 45.31740455 -21.5625 42.6875 C-25.26534798 40.76551357 -28.10307286 38.7638396 -30.625 35.375 C-31.4375 31.5625 -31.4375 31.5625 -31.625 28.375 C-27.005 28.375 -22.385 28.375 -17.625 28.375 C-16.965 29.695 -16.305 31.015 -15.625 32.375 C-12.88594655 33.74452673 -10.65412668 33.50121361 -7.625 33.375 C-6.635 32.88 -6.635 32.88 -5.625 32.375 C-5.955 31.055 -6.285 29.735 -6.625 28.375 C-7.71039063 28.13265625 -8.79578125 27.8903125 -9.9140625 27.640625 C-11.35952507 27.30272466 -12.80482939 26.96414687 -14.25 26.625 C-14.96285156 26.46773437 -15.67570312 26.31046875 -16.41015625 26.1484375 C-21.73411362 24.87850271 -26.49461232 23.0864025 -30 18.625 C-31.4010011 13.58139605 -31.28265291 9.79991464 -29.125 5.125 C-21.8272441 -2.90253149 -9.92378486 -4.42296029 0 0 Z " fill="#000000" transform="translate(482.625,160.625)"/>
<path d="M0 0 C4.62 0 9.24 0 14 0 C14 4.29 14 8.58 14 13 C16.64 13 19.28 13 22 13 C22 16.3 22 19.6 22 23 C19.36 23 16.72 23 14 23 C14.33 29.93 14.66 36.86 15 44 C18.465 44.495 18.465 44.495 22 45 C22 48.63 22 52.26 22 56 C18.0697255 57.96513725 13.29382057 57.33355951 9 57 C5.33024645 55.75490505 3.64530524 54.87749586 1.36206055 51.77270508 C-0.23089195 48.5299803 -0.34612831 46.42134879 -0.29296875 42.82421875 C-0.28330078 41.66728516 -0.27363281 40.51035156 -0.26367188 39.31835938 C-0.23853516 38.12017578 -0.21339844 36.92199219 -0.1875 35.6875 C-0.17396484 34.46998047 -0.16042969 33.25246094 -0.14648438 31.99804688 C-0.11119261 28.99824655 -0.06188481 25.99935025 0 23 C-1.98 23 -3.96 23 -6 23 C-6 19.7 -6 16.4 -6 13 C-4.02 13 -2.04 13 0 13 C0 8.71 0 4.42 0 0 Z " fill="#000000" transform="translate(308,147)"/>
<path d="M0 0 C4.62 0 9.24 0 14 0 C14 3.96 14 7.92 14 12 C16.64 12 19.28 12 22 12 C22 15.3 22 18.6 22 22 C19.36 22 16.72 22 14 22 C14.33 28.93 14.66 35.86 15 43 C18.465 43.495 18.465 43.495 22 44 C22.02687279 45.81242052 22.04633715 47.62495233 22.0625 49.4375 C22.07410156 50.44683594 22.08570313 51.45617187 22.09765625 52.49609375 C22 55 22 55 21 56 C14.60070245 56.51751706 8.3572077 56.9835647 3 53 C0.19610842 49.17811103 -0.36245846 46.52635572 -0.29296875 41.82421875 C-0.28330078 40.66728516 -0.27363281 39.51035156 -0.26367188 38.31835938 C-0.23853516 37.12017578 -0.21339844 35.92199219 -0.1875 34.6875 C-0.17396484 33.46998047 -0.16042969 32.25246094 -0.14648438 30.99804688 C-0.11119261 27.99824655 -0.06188481 24.99935025 0 22 C-1.98 22 -3.96 22 -6 22 C-6 18.7 -6 15.4 -6 12 C-4.02 12 -2.04 12 0 12 C0 8.04 0 4.08 0 0 Z " fill="#000000" transform="translate(271,82)"/>
<path d="M0 0 C0 3.96 0 7.92 0 12 C-2.24609375 12.42317708 -4.4921875 12.84635417 -6.73828125 13.26953125 C-9.29039274 14.09378833 -10.35316788 14.90725641 -12 17 C-12.99455909 19.98367726 -13.19559632 22.2004192 -13.31640625 25.32421875 C-13.35830078 26.35224609 -13.40019531 27.38027344 -13.44335938 28.43945312 C-13.48267578 29.51130859 -13.52199219 30.58316406 -13.5625 31.6875 C-13.60568359 32.77095703 -13.64886719 33.85441406 -13.69335938 34.97070312 C-13.79946742 37.64698385 -13.90024055 40.32347511 -14 43 C-18.62 43 -23.24 43 -28 43 C-28 28.81 -28 14.62 -28 0 C-23.38 0 -18.76 0 -14 0 C-13.67 1.65 -13.34 3.3 -13 5 C-12.67 4.01 -12.34 3.02 -12 2 C-7.15933671 -0.606511 -5.54505599 -1.1090112 0 0 Z " fill="#000000" transform="translate(407,160)"/>
</svg>
