<svg version="1.1" xmlns="http://www.w3.org/2000/svg" viewBox="0 0 91.8 28">
 <g fill="#000000" transform="translate(0,-68)">
  <!-- N -->
  <path d="M0,92.9c0,0.5,0.1,0.8,0.4,1.1c0.3,0.3,0.7,0.5,1.3,0.5h1.5c0.6,0,1-0.2,1.3-0.5c0.2-0.3,0.4-0.6,0.4-1.1V77.9h0.1c0,0,8.4,14.8,8.7,15.3c0.5,0.8,1.3,1.4,2.4,1.4h2.6c0.6,0,1-0.2,1.3-0.5c0.2-0.3,0.4-0.6,0.4-1.1V74.1H54c0.3,0,0.6-0.1,0.8-0.3c0.2-0.2,0.3-0.5,0.3-0.8v-1.4c0-0.4-0.1-0.6-0.3-0.8c-0.2-0.2-0.5-0.3-0.8-0.3H17.1c-0.6,0-1,0.2-1.3,0.5c-0.2,0.3-0.4,0.6-0.4,1.1v14.7h-0.1c0,0-8-14.3-8.4-15c-0.3-0.5-0.6-0.8-1-1c-0.4-0.2-0.8-0.4-1.6-0.4H1.6c-0.6,0-1,0.2-1.3,0.5C0.1,71.2,0,71.5,0,72.1V92.9z"/>
  <!-- E -->
  <path d="M38.9,86.8c0.3-0.3,0.4-0.6,0.4-1.3c0-2.1-0.7-4.3-2.1-6c-1.4-1.7-3.6-2.9-6.7-2.9c-5.6,0-8.8,4.4-8.8,9c0,4.9,3.4,9.3,8.8,9.3c2.7,0,5.4-1,6.9-2.8c0.7-0.8,1.2-1.9,1.2-2.5c0-0.2,0-0.4-0.2-0.6c-0.1-0.2-0.3-0.3-0.7-0.3h-2.6c-0.5,0-0.9,0.2-1.1,0.6c-0.8,1.1-1.9,1.7-3.5,1.7c-2.4,0-4-1.8-4.1-3.9h11.3C38.3,87.1,38.6,87,38.9,86.8 M26.5,83.7c0.2-2,1.7-3.5,4-3.5c2.3,0,3.8,1.5,4,3.5H26.5z"/>
  <!-- S -->
  <path d="M48.1,91.2c-0.8,0-1.6-0.1-2.2-0.5c-0.5-0.2-0.8-0.5-1.1-1c-0.2-0.4-0.3-0.6-0.7-0.9c-0.2-0.1-0.5-0.1-0.9-0.1h-2c-0.4,0-0.6,0.1-0.8,0.3c-0.1,0.2-0.2,0.4-0.2,0.7c0,0.6,0.2,1.5,0.8,2.2c1.2,1.7,3.8,3,7.1,3c3.2,0,7.7-1.3,7.7-5.7c0-1.1-0.3-2.1-0.9-2.9c-0.8-1-1.8-1.7-3.7-2.1l-3.7-0.9c-1.5-0.4-2.2-0.7-2.2-1.6c0-0.9,0.8-1.6,2.7-1.6c1.1,0,2.1,0.2,2.8,0.9c0.5,0.6,0.4,0.9,0.9,1.1c0.3,0.1,0.6,0.1,1,0.1h1.8c0.3,0,0.5,0,0.7-0.2c0.1-0.1,0.2-0.4,0.2-0.7c0-0.8-0.5-1.9-1.5-2.8c-1.3-1.1-3.3-1.9-5.8-1.9c-4.4,0-7.3,2.1-7.3,5.5c0,1.2,0.4,2.2,1.1,2.9c0.8,0.9,2,1.5,3.7,1.9l3.7,0.9c1,0.3,1.9,0.6,1.9,1.5C51.1,90.7,49.6,91.2,48.1,91.2"/>
  <!-- T -->
  <path d="M65.6,80.5c0.3,0,0.6-0.1,0.8-0.3c0.2-0.2,0.3-0.5,0.3-0.8v-1.1c0-0.4-0.1-0.6-0.3-0.8c-0.2-0.2-0.5-0.3-0.8-0.3h-2.9v-5.3c0-0.4-0.1-0.7-0.3-1c-0.2-0.3-0.6-0.5-1.1-0.5h-1.8c-0.5,0-0.8,0.2-1.1,0.5c-0.2,0.2-0.3,0.6-0.3,1v5.3h-0.9c-0.3,0-0.6,0.1-0.8,0.3c-0.2,0.2-0.3,0.5-0.3,0.8v1.1c0,0.4,0.1,0.7,0.3,0.8c0.2,0.2,0.5,0.3,0.8,0.3H58v8.1c0,2.1,0.6,3.4,1.6,4.4c1,1,2.2,1.6,4.4,1.6h1.4c0.3,0,0.6-0.1,0.8-0.3c0.2-0.2,0.3-0.5,0.3-0.8v-1.4c0-0.4-0.1-0.6-0.3-0.8C66,91.1,65.8,91,65.5,91h-0.2c-0.9,0-1.5-0.2-1.9-0.6c-0.5-0.5-0.7-1.1-0.7-2.1v-7.8H65.6z"/>
  <!-- L -->
  <path d="M69.3,94.6h1.9c0.5,0,0.8-0.2,1.1-0.5c0.2-0.2,0.3-0.6,0.3-1V71.9c0-0.4-0.1-0.7-0.3-1c-0.2-0.3-0.6-0.5-1.1-0.5h-1.9c-0.5,0-0.8,0.2-1.1,0.5c-0.2,0.2-0.3,0.6-0.3,1v21.2c0,0.4,0.1,0.7,0.3,1C68.5,94.4,68.8,94.6,69.3,94.6"/>
  <!-- É accent -->
  <path d="M90.2,74.1c0.3,0,0.6-0.1,0.8-0.3c0.2-0.2,0.3-0.5,0.3-0.8v-1.5c0-0.6-0.1-0.9-0.3-1.1c-0.2-0.2-0.5-0.3-0.8-0.3c-0.3,0-0.5,0-1,0.1l-12.9,1.3c-0.4,0-0.5,0.1-0.7,0.3c-0.1,0.2-0.2,0.4-0.2,0.7v0.8c0,0.3,0.1,0.5,0.2,0.6c0.1,0.2,0.4,0.2,0.6,0.2H90.2z"/>
  <!-- É shape -->
  <path d="M91.4,86.8c0.3-0.3,0.4-0.6,0.4-1.3c0-2.1-0.7-4.3-2.1-6c-1.4-1.7-3.6-2.9-6.7-2.9c-5.6,0-8.8,4.4-8.8,9c0,4.9,3.4,9.3,8.8,9.3c2.7,0,5.4-1,6.9-2.8c0.7-0.8,1.2-1.9,1.2-2.5c0-0.2,0-0.4-0.2-0.6c-0.1-0.2-0.3-0.3-0.7-0.3h-2.6c-0.5,0-0.9,0.2-1.1,0.6c-0.8,1.1-1.9,1.7-3.5,1.7c-2.4,0-4-1.8-4.1-3.9h11.3C90.8,87.1,91.2,87,91.4,86.8 M79,83.7c0.2-2,1.7-3.5,4-3.5c2.3,0,3.8,1.5,4,3.5H79z"/>
 </g>
</svg>
