<?xml version="1.0" encoding="UTF-8"?>
<svg version="1.1" xmlns="http://www.w3.org/2000/svg" width="3840" height="2160">
<path d="M0 0 C1.11380035 0.00149048 2.22760071 0.00298096 3.37515259 0.0045166 C20.75677855 0.04621446 37.72701508 0.72816917 54.9375 3.3125 C55.95585938 3.45703613 56.97421875 3.60157227 58.0234375 3.75048828 C98.91165658 9.62231745 139.32594789 21.5012359 176.65917969 39.23730469 C178.95281642 40.31972819 181.2591246 41.36970479 183.5703125 42.4140625 C196.45575058 48.2932372 208.70779928 55.18310901 220.9375 62.3125 C221.67548828 62.74095215 222.41347656 63.1694043 223.17382812 63.61083984 C251.03441876 79.84050537 277.81563342 99.25988416 301.53125 121.1171875 C303.57306023 122.98000787 305.64057137 124.80053415 307.7265625 126.61328125 C311.83587338 130.20007612 315.83920488 133.88861095 319.8125 137.625 C320.50722412 138.27799072 321.20194824 138.93098145 321.91772461 139.60375977 C329.22489699 146.4950285 336.43588312 153.42027837 342.96875 161.0625 C345.01519493 163.40129421 347.12129716 165.67302829 349.24267578 167.94360352 C355.08154956 174.19746413 360.60041311 180.62095912 365.9375 187.3125 C366.8467663 188.43041194 367.7569716 189.5475606 368.66796875 190.6640625 C425.64795276 260.75651516 465.43822888 343.33832507 489.9487915 601.49972534 C481.47097402 682.49831233 459.36482512 762.72152795 422.00927734 835.23095703 C421.24812649 836.70921948 420.49105868 838.18958744 419.73681641 839.67138672 C410.09649447 858.59525409 399.44834055 876.75930359 387.6875 894.4375 C387.31744843 894.99495911 386.94739685 895.55241821 386.56613159 896.12677002 C381.28120458 904.06701763 375.72223037 911.73133969 369.9375 919.3125 C369.0439013 920.49841956 368.15059375 921.68455867 367.2578125 922.87109375 C362.23066965 929.46362806 357.0214944 935.85135003 351.625 942.14453125 C349.81650732 944.25944845 348.04925262 946.40000848 346.3125 948.57421875 C345.508125 949.58097656 344.70375 950.58773437 343.875 951.625 C342.80572266 952.98044922 342.80572266 952.98044922 341.71484375 954.36328125 C341.12832031 955.00652344 340.54179688 955.64976562 339.9375 956.3125 C339.2775 956.3125 338.6175 956.3125 337.9375 956.3125 C337.60685547 957.11880859 337.60685547 957.11880859 337.26953125 957.94140625 C335.48698697 961.11443962 333.1015849 963.61554514 330.625 966.25 C330.15126953 966.76240234 329.67753906 967.27480469 329.18945312 967.80273438 C317.90130957 979.95563312 305.50837934 991.09794236 292.8046875 1001.74560547 C291.50994466 1002.83211953 290.21849736 1003.92256815 288.9296875 1005.01611328 C279.59081882 1012.93622593 270.06958604 1020.28046999 259.85644531 1027.03759766 C257.99506433 1028.27425561 256.14831617 1029.5300381 254.3046875 1030.79296875 C201.66941709 1066.69427643 141.87659559 1090.17880428 79.125 1100.6875 C78.39853271 1100.80937683 77.67206543 1100.93125366 76.92358398 1101.05682373 C59.01785872 1104.01953525 41.33537927 1105.62977802 23.18359375 1105.61328125 C21.34489347 1105.61718867 19.50619406 1105.62152735 17.66749573 1105.62626648 C13.84137021 1105.63365563 10.01533706 1105.63349238 6.18920898 1105.62817383 C2.32548356 1105.62355011 -1.53792656 1105.63044244 -5.40161133 1105.64868164 C-26.82424396 1105.74883355 -47.84734398 1105.66512717 -69.0625 1102.3125 C-70.58583464 1102.0857118 -72.10918935 1101.85905835 -73.63256836 1101.63256836 C-77.51883353 1101.03427933 -81.38442663 1100.34592213 -85.25 1099.625 C-85.92806702 1099.49933655 -86.60613403 1099.3736731 -87.30474854 1099.24420166 C-128.17335985 1091.61462604 -168.00376084 1078.61650831 -204.9296875 1059.41796875 C-207.35305785 1058.1618995 -209.78599099 1056.92528208 -212.21875 1055.6875 C-222.55402974 1050.39280222 -232.41465369 1044.76503906 -242.0625 1038.3125 C-243.83086875 1037.20439049 -245.6016231 1036.10007685 -247.375 1035 C-264.97736913 1023.7914326 -281.26401898 1010.90604396 -297.0625 997.3125 C-297.76632812 996.71050781 -298.47015625 996.10851563 -299.1953125 995.48828125 C-301.16944636 993.78259656 -303.11988994 992.05402658 -305.0625 990.3125 C-305.95582031 989.51199219 -306.84914063 988.71148438 -307.76953125 987.88671875 C-314.67685848 981.63134157 -321.33792671 975.14101286 -327.9375 968.5625 C-328.73389893 967.77069336 -329.53029785 966.97888672 -330.35083008 966.16308594 C-335.12730213 961.37409562 -339.66976173 956.45416855 -344.0625 951.3125 C-345.03577498 950.19471713 -346.00970519 949.07750434 -346.984375 947.9609375 C-353.93532262 939.93716312 -360.62606832 931.75445559 -367.0625 923.3125 C-367.83883789 922.29905518 -367.83883789 922.29905518 -368.63085938 921.26513672 C-384.2247358 900.81331134 -397.91767824 879.14937724 -410.63183594 856.81103516 C-411.84153899 854.69838994 -413.07080354 852.60093911 -414.3203125 850.51171875 C-420.1382083 840.67782605 -424.93193055 830.37825913 -429.77685547 820.03955078 C-430.89777736 817.66190218 -432.03737703 815.29528939 -433.19140625 812.93359375 C-465.03647497 747.41218648 -483.42331853 673.67347736 -490.84960938 601.36907959 C-491.06519152 599.28649916 -491.29008101 597.20505798 -491.515625 595.12353516 C-495.92954955 553.61915956 -497.06150817 509.68409544 -491.0625 468.3125 C-490.83771973 466.64670898 -490.83771973 466.64670898 -490.60839844 464.94726562 C-486.35300161 433.48804748 -479.19207837 402.40401993 -469.0625 372.3125 C-468.76762695 371.42675293 -468.47275391 370.54100586 -468.16894531 369.62841797 C-448.75431782 311.53542639 -419.58996865 258.56531817 -383.4765625 209.27148438 C-382.51647109 207.94141299 -381.57423263 206.59830782 -380.6484375 205.24414062 C-379.49860107 203.56813636 -378.28608332 201.93544731 -377.0625 200.3125 C-376.4025 200.3125 -375.7425 200.3125 -375.0625 200.3125 C-374.835625 199.78785156 -374.60875 199.26320313 -374.375 198.72265625 C-372.60326879 195.46920935 -370.35715272 192.64315493 -368.0625 189.75 C-367.57555664 189.13302246 -367.08861328 188.51604492 -366.58691406 187.88037109 C-361.99256546 182.11884979 -357.07282133 176.71545298 -352.0625 171.3125 C-350.74331815 169.83928938 -349.43010994 168.36069119 -348.125 166.875 C-347.60035156 166.27816406 -347.07570313 165.68132812 -346.53515625 165.06640625 C-344.99096293 163.27742716 -344.99096293 163.27742716 -343.49609375 161.08984375 C-343.02300781 160.50332031 -342.54992187 159.91679688 -342.0625 159.3125 C-341.4025 159.3125 -340.7425 159.3125 -340.0625 159.3125 C-339.81177734 158.73725586 -339.56105469 158.16201172 -339.30273438 157.56933594 C-337.89521173 155.00808804 -336.28079975 153.27192608 -334.21875 151.203125 C-333.46722656 150.44902344 -332.71570313 149.69492187 -331.94140625 148.91796875 C-331.15636719 148.14066406 -330.37132812 147.36335937 -329.5625 146.5625 C-328.77746094 145.76972656 -327.99242187 144.97695313 -327.18359375 144.16015625 C-326.43207031 143.41121094 -325.68054688 142.66226563 -324.90625 141.890625 C-324.21724609 141.20387695 -323.52824219 140.51712891 -322.81835938 139.80957031 C-321.0625 138.3125 -321.0625 138.3125 -319.0625 138.3125 C-318.7325 137.3225 -318.4025 136.3325 -318.0625 135.3125 C-316.63671875 133.875 -316.63671875 133.875 -314.75 132.3125 C-311.69085472 129.72315203 -308.70474948 127.07935477 -305.76953125 124.34985352 C-299.73420204 118.74021671 -293.49837852 113.46120282 -287.0625 108.3125 C-285.88487057 107.3548378 -284.70781789 106.39646609 -283.53125 105.4375 C-252.24845727 80.03453208 -217.37149961 58.69745779 -181.0625 41.3125 C-180.24491211 40.9196582 -179.42732422 40.52681641 -178.58496094 40.12207031 C-142.6012719 22.9848932 -104.09327569 11.72318035 -64.875 5.0625 C-63.78726288 4.87491119 -63.78726288 4.87491119 -62.67755127 4.68353271 C-41.83441322 1.12246783 -21.12899203 -0.07035817 0 0 Z M-185.0625 105.3125 C-185.86171875 106.09882812 -186.6609375 106.88515625 -187.484375 107.6953125 C-246.44061062 167.54482442 -260.10881912 271.89535242 -260.44001496 368.79470527 C-260.4309877 373.89708449 -260.4396686 378.99944263 -260.44587708 384.1018219 C-260.45526195 394.04353159 -260.44885687 403.98516759 -260.43661413 413.92687171 C-260.42283971 425.55547613 -260.42464546 437.18406396 -260.42674746 448.81267447 C-260.42992235 469.59119568 -260.4183569 490.36968238 -260.39868164 511.14819336 C-260.37968654 531.21428478 -260.37259539 551.28033578 -260.37817383 571.34643555 C-260.38426081 593.30609166 -260.38400128 615.26573011 -260.372688 637.22538477 C-260.37148097 639.57647582 -260.37027499 641.92756687 -260.36907005 644.27865791 C-260.36846651 645.43481476 -260.36786298 646.59097161 -260.36724115 647.78216351 C-260.36339614 655.84736642 -260.3637422 663.91256266 -260.3656559 671.97776604 C-260.36779989 681.83566414 -260.36239008 691.69352728 -260.34804235 701.55141561 C-260.3409038 706.56069909 -260.33662838 711.56993222 -260.34128571 716.57921982 C-260.35664763 735.51731148 -260.18803956 754.40579389 -259.15861511 773.31959534 C-259.09919645 774.42297401 -259.09919645 774.42297401 -259.03857742 775.54864316 C-256.59407224 819.71677262 -249.91296894 864.22135145 -236.0625 906.3125 C-235.78937988 907.14958496 -235.51625977 907.98666992 -235.23486328 908.84912109 C-231.76949182 919.37570582 -227.91427675 929.54580508 -222.97607422 939.47070312 C-222.02158551 941.39498501 -221.09004222 943.32934644 -220.16015625 945.265625 C-211.67296188 962.78210998 -201.41705954 978.27467198 -188.69189453 993.03759766 C-186.65614748 995.40018822 -184.79576879 997.71259682 -183.0625 1000.3125 C-182.4025 1000.3125 -181.7425 1000.3125 -181.0625 1000.3125 C-180.5675 1001.7975 -180.5675 1001.7975 -180.0625 1003.3125 C-178.50814528 1004.92666944 -178.50814528 1004.92666944 -176.5625 1006.5 C-172.22634264 1010.15910823 -172.22634264 1010.15910823 -170.1640625 1012.08984375 C-135.77656784 1044.23467572 -88.94711774 1059.01296082 -43.0625 1064.3125 C-42.19625 1064.41691406 -41.33 1064.52132813 -40.4375 1064.62890625 C27.59332592 1072.5324875 104.06551594 1063.54212231 159.9375 1021.3125 C161.31228516 1020.27609375 161.31228516 1020.27609375 162.71484375 1019.21875 C167.86882327 1015.21627592 172.50869253 1010.90258256 177.02734375 1006.1953125 C178.9375 1004.3125 178.9375 1004.3125 181.9375 1002.3125 C181.9375 1001.6525 181.9375 1000.9925 181.9375 1000.3125 C182.5975 1000.3125 183.2575 1000.3125 183.9375 1000.3125 C186.70586653 997.33531272 189.16298358 994.10219612 191.67431641 990.90673828 C192.85123905 989.42136819 194.05548705 987.95776275 195.26171875 986.49609375 C207.95832356 970.73551489 217.92874324 952.85296598 225.9375 934.3125 C226.34572998 933.37978271 226.34572998 933.37978271 226.76220703 932.42822266 C252.47535172 873.09144594 258.25335249 807.74999141 259.47998047 743.84716797 C259.50141105 742.73789688 259.52284164 741.62862579 259.54492164 740.48574042 C260.17224986 706.76989537 260.08460092 673.04786148 260.07280023 639.32753218 C260.07048661 632.53760733 260.07024217 625.74768499 260.07131577 618.95775986 C260.071469 617.97753655 260.07162223 616.99731324 260.07178011 615.98738619 C260.07209994 613.99404217 260.07242416 612.00069815 260.0727527 610.00735413 C260.07557541 591.50416082 260.07236986 573.00097255 260.06695233 554.49778007 C260.06247162 538.70554881 260.06327689 522.91332489 260.06787109 507.12109375 C260.07324731 488.6329101 260.07531715 470.14473079 260.07225883 451.65654647 C260.07194038 449.67879542 260.071626 447.70104436 260.07131577 445.7232933 C260.07116149 444.75097414 260.07100721 443.77865498 260.07084826 442.7768716 C260.06999338 436.00308304 260.07142319 429.2292973 260.07379532 422.45550919 C260.07662699 414.19096535 260.07578452 405.92643098 260.07051457 397.6618882 C260.06792472 393.46537193 260.06679031 389.26887134 260.07016373 385.07235527 C260.08958186 358.69443898 260.05984315 332.22835232 257.6875 305.9375 C257.62503082 305.23078156 257.56256165 304.52406311 257.49819946 303.79592896 C254.5903135 271.2816168 248.51218395 239.54511903 238.9375 208.3125 C238.71126953 207.56661621 238.48503906 206.82073242 238.25195312 206.05224609 C227.39958982 170.67196892 210.65630484 138.50270419 187 110.0625 C186.52691406 109.48854492 186.05382812 108.91458984 185.56640625 108.32324219 C184.40215892 106.94662125 183.17481305 105.62384033 181.9375 104.3125 C181.2775 104.3125 180.6175 104.3125 179.9375 104.3125 C179.9375 103.6525 179.9375 102.9925 179.9375 102.3125 C178.54838239 100.9043868 178.54838239 100.9043868 176.75 99.5 C174.58163009 97.70742328 172.59246043 95.95813503 170.625 93.9375 C126.75267027 51.08545701 59.17449919 40.10869731 0.5 40.0625 C-0.68213577 40.06148788 -0.68213577 40.06148788 -1.88815308 40.06045532 C-68.63492974 40.14971909 -137.38669684 55.75475725 -185.0625 105.3125 Z " fill="#000000" transform="translate(632.0625,515.6875)"/>
<path d="M0 0 C1.27654724 0.00308298 1.27654724 0.00308298 2.57888332 0.00622824 C3.4784675 0.0044752 4.37805169 0.00272216 5.304896 0.000916 C8.3595302 -0.00378504 11.41411766 -0.00126794 14.46875396 0.00114992 C16.66549978 -0.00071611 18.86224526 -0.00301597 21.05899021 -0.0057154 C27.12845534 -0.01186784 33.19790677 -0.01169572 39.26737431 -0.01052102 C45.13303753 -0.01033867 50.99869594 -0.01482148 56.86435731 -0.01913391 C70.36590862 -0.02883167 83.86745615 -0.03161931 97.36901053 -0.03219097 C107.82098115 -0.03265058 118.27295028 -0.03470931 128.72492042 -0.0378916 C131.73458164 -0.03878924 134.74424286 -0.03967905 137.75390407 -0.04056647 C138.87640753 -0.04089805 138.87640753 -0.04089805 140.02158782 -0.04123632 C161.09804143 -0.04739804 182.17449451 -0.05133626 203.25094905 -0.05089304 C204.44449974 -0.05086967 204.44449974 -0.05086967 205.66216256 -0.05084583 C209.69482678 -0.05076273 213.727491 -0.05066369 217.76015522 -0.05056112 C218.56099338 -0.05054118 219.36183153 -0.05052123 220.18693751 -0.05050068 C221.80644653 -0.05046024 223.42595556 -0.05041845 225.04546458 -0.05037529 C250.12675751 -0.04976534 275.20803683 -0.05721394 300.28932586 -0.07094786 C328.50485888 -0.0863918 356.72038295 -0.09490869 384.93592045 -0.09398463 C387.96098505 -0.09391002 390.98604966 -0.0938613 394.01111427 -0.09383032 C394.75588103 -0.09381866 395.50064779 -0.09380701 396.26798324 -0.093795 C408.14225602 -0.0937645 420.01651681 -0.10009268 431.89078605 -0.10876258 C443.89679758 -0.11734511 455.90279203 -0.11814832 467.90880498 -0.11165326 C474.38574573 -0.10833623 480.86265285 -0.10816229 487.33959022 -0.11700651 C583.7765854 -0.24026716 683.75435212 3.76270028 839.1465036 72.13486269 C840.0540036 72.7497455 840.9615036 73.36462832 841.8965036 73.99814394 C847.47973227 77.83661365 852.84463821 81.91870352 858.1465036 86.13486269 C858.98439422 86.79744082 859.82228485 87.46001894 860.6855661 88.14267519 C863.18323893 90.12723094 865.66862491 92.12566171 868.1465036 94.13486269 C868.8683786 94.718808 869.5902536 95.30275332 870.3340036 95.90439394 C871.97861412 97.26716596 873.56920311 98.69471877 875.1465036 100.13486269 C875.1465036 100.79486269 875.1465036 101.45486269 875.1465036 102.13486269 C875.8065036 102.13486269 876.4665036 102.13486269 877.1465036 102.13486269 C877.1465036 102.79486269 877.1465036 103.45486269 877.1465036 104.13486269 C877.8065036 104.13486269 878.4665036 104.13486269 879.1465036 104.13486269 C880.5215036 105.49814394 880.5215036 105.49814394 882.1465036 107.44736269 C884.92789545 110.73810408 887.80576019 113.88472265 890.7715036 117.00986269 C937.67265092 168.67941195 951.84216845 241.75714454 949.0058786 309.49326113 C946.6693307 353.79474032 933.63586639 397.57248113 908.1465036 434.13486269 C907.28050418 435.40301402 906.41461697 436.67124198 905.54884735 437.93955019 C901.14292163 444.31559156 896.46937855 450.2929829 891.1543161 455.95126894 C889.05258736 458.17236628 889.05258736 458.17236628 887.0136911 460.91220644 C886.39751922 461.645683 885.78134735 462.37915957 885.1465036 463.13486269 C884.4865036 463.13486269 883.8265036 463.13486269 883.1465036 463.13486269 C882.89771453 463.7084955 882.64892547 464.28212832 882.39259735 464.87314394 C878.34208355 472.22501694 870.39175927 477.73965822 863.9433786 482.89658144 C862.14470975 484.33601894 860.36185055 485.79555981 858.5996286 487.27939394 C837.45792003 505.05764888 813.58299573 518.55461978 788.54054657 530.03183535 C786.53611705 530.95535284 784.54468561 531.90701217 782.55665985 532.86533144 C654.21184925 594.47744772 486.06606961 579.13486269 355.1465036 579.13486269 C355.1465036 724.00486269 355.1465036 868.87486269 355.1465036 1018.13486269 C410.2565036 1018.13486269 465.3665036 1018.13486269 522.1465036 1018.13486269 C522.1465036 1031.33486269 522.1465036 1044.53486269 522.1465036 1058.13486269 C347.5765036 1058.13486269 173.0065036 1058.13486269 -6.8534964 1058.13486269 C-6.8534964 1044.93486269 -6.8534964 1031.73486269 -6.8534964 1018.13486269 C44.9565036 1018.13486269 96.7665036 1018.13486269 150.1465036 1018.13486269 C149.8165036 695.72486269 149.4865036 373.31486269 149.1465036 41.13486269 C97.9965036 41.13486269 46.8465036 41.13486269 -5.8534964 41.13486269 C-7.72312358 39.26523551 -6.98235943 36.58822708 -6.99244294 34.10104921 C-6.9904187 33.25627016 -6.98839447 32.41149111 -6.9863089 31.54111269 C-6.98726563 30.67925356 -6.98822235 29.81739443 -6.98920807 28.92941836 C-6.9898899 27.10353057 -6.98803545 25.27764038 -6.9838675 23.45175722 C-6.97851926 20.64685191 -6.9838124 17.84210674 -6.99021515 15.03720644 C-6.98955437 13.26767484 -6.98827321 11.49814333 -6.9863089 9.72861269 C-6.98833313 8.88383364 -6.99035736 8.03905459 -6.99244294 7.16867617 C-6.96453689 0.28542166 -6.89153148 0.02486403 0 0 Z M355.1465036 39.13486269 C355.1465036 203.47486269 355.1465036 367.81486269 355.1465036 537.13486269 C509.02543745 553.5266821 509.02543745 553.5266821 660.9433786 498.14658144 C663.1465036 496.13486269 663.1465036 496.13486269 666.2090036 493.75986269 C684.77971606 477.16475794 696.86412978 452.18425959 705.1465036 429.13486269 C705.55594207 427.99742617 705.55594207 427.99742617 705.97365203 426.83701113 C730.89243165 356.14653003 729.8924977 267.81099397 719.1465036 194.13486269 C719.01018524 193.14647402 718.87386688 192.15808535 718.73341766 191.1397455 C712.29524141 145.03169806 695.02586569 100.11389914 657.1465036 71.13486269 C643.31256738 60.93263339 627.85668229 53.15989344 611.3340036 48.50986269 C610.35624969 48.22369082 609.37849578 47.93751894 608.37111297 47.64267519 C531.12266311 25.47090876 417.23584069 39.13486269 355.1465036 39.13486269 Z " fill="#000000" transform="translate(1632.853496402502,538.865137308836)"/>
<path d="M0 0 C1.23541633 0.00394052 1.23541633 0.00394052 2.49579057 0.00796065 C3.36645686 0.0068068 4.23712315 0.00565296 5.13417327 0.00446415 C8.08994843 0.00178971 11.04567053 0.0063264 14.001443 0.01075396 C16.12657837 0.01031843 18.25171369 0.00944385 20.37684873 0.00816479 C26.24640668 0.00591631 32.11594657 0.00994591 37.98550221 0.01494285 C44.3038804 0.01924214 50.62225749 0.0178013 56.94063672 0.01704058 C67.89756969 0.01651501 78.85449587 0.0196305 89.81142721 0.02527842 C101.30708764 0.03118889 112.8027457 0.03504304 124.29840764 0.03613123 C125.0123075 0.03619997 125.72620735 0.03626871 126.46174053 0.03633953 C130.0870547 0.03667785 133.71236887 0.03697924 137.33768304 0.03726641 C163.03744851 0.03936863 188.73721089 0.04611104 214.43697461 0.05556902 C239.40897966 0.06474859 264.38098385 0.07183459 289.35299024 0.07607684 C290.12229751 0.07620836 290.89160478 0.07633989 291.68422439 0.0764754 C299.40969572 0.07779388 307.13516706 0.0790697 314.86063841 0.08031426 C330.59929492 0.08285069 346.33795137 0.08567195 362.07660779 0.08866534 C362.8002973 0.08880263 363.5239868 0.08893992 364.2696063 0.08908137 C412.62300453 0.09828707 460.9764007 0.11436065 509.32979688 0.13100848 C509.32979688 13.66100848 509.32979688 27.19100848 509.32979688 41.13100848 C458.50979688 41.13100848 407.68979688 41.13100848 355.32979688 41.13100848 C354.48521739 45.35390594 354.20505022 48.72470535 354.20559838 52.9844934 C354.2043203 53.66586719 354.20304221 54.34724098 354.2017254 55.04926246 C354.19865299 57.34164247 354.20273059 59.63395409 354.20674905 61.92633185 C354.20600958 63.58983557 354.20483117 65.25333914 354.20325255 66.91684228 C354.20017458 71.512319 354.20336607 76.1077737 354.20753069 80.70324878 C354.210957 85.69350769 354.2085956 90.68376431 354.2069532 95.67402366 C354.20487634 104.42799706 354.20652855 113.18196368 354.21059141 121.9359363 C354.21661602 134.95286054 354.21692818 147.96978048 354.21604942 160.98670586 C354.21473415 182.88117036 354.21807484 204.7756322 354.22406682 226.67009577 C354.22998743 248.35549911 354.23384154 270.0409012 354.23491964 291.72630534 C354.23495405 292.39954157 354.23498846 293.07277781 354.23502392 293.76641515 C354.23533711 299.91530805 354.2356248 306.06420095 354.23588189 312.21309385 C354.23652132 327.49918162 354.23748067 342.78526936 354.23865709 358.0713571 C354.2387104 358.76748467 354.23876372 359.46361224 354.23881866 360.18083459 C354.24144076 394.05102648 354.24774856 427.92121756 354.25435743 461.79140887 C354.25664907 473.54647478 354.25892442 485.30154069 354.26113233 497.05660662 C354.26126928 497.78564784 354.26140623 498.51468906 354.26154733 499.26582245 C354.26789033 533.15130626 354.27161665 567.03679021 354.27466712 600.92227446 C354.27486519 603.12189781 354.27506438 605.32152116 354.2752638 607.52114451 C354.27658357 622.09805113 354.27785823 636.67495776 354.27910266 651.25186439 C354.28157922 680.25678057 354.28432091 709.26169672 354.28724471 738.26661286 C354.28738395 739.64793122 354.287523 741.02924957 354.28766187 742.41056793 C354.29647618 830.06450684 354.31137707 917.71844483 354.32979688 1018.13100848 C358.17989304 1018.94972497 361.68217022 1019.25456298 365.62564954 1019.25126299 C366.89464597 1019.25263766 368.1636424 1019.25401232 369.47109327 1019.25542864 C370.86971411 1019.25188996 372.26833471 1019.24825516 373.66695508 1019.24453387 C375.14550629 1019.24425167 376.62405764 1019.24441036 378.10260877 1019.24497637 C382.11046164 1019.2452631 386.11828453 1019.23938651 390.12613043 1019.23240241 C394.31683569 1019.22614812 398.50754165 1019.22556343 402.69825086 1019.22437701 C410.63126764 1019.22126982 418.56427063 1019.21306467 426.49728134 1019.20302752 C435.52987167 1019.19184738 444.56246265 1019.18635114 453.59505817 1019.18133208 C472.17331382 1019.17088156 490.75155055 1019.15254367 509.32979688 1019.13100848 C509.32979688 1032.66100848 509.32979688 1046.19100848 509.32979688 1060.13100848 C339.04979688 1060.13100848 168.76979688 1060.13100848 -6.67020312 1060.13100848 C-6.67020312 1046.93100848 -6.67020312 1033.73100848 -6.67020312 1020.13100848 C44.64789319 1009.86738921 97.99540199 1019.13100848 150.32979688 1019.13100848 C149.99979688 696.39100848 149.66979688 373.65100848 149.32979688 41.13100848 C98.17979688 41.13100848 47.02979688 41.13100848 -5.67020312 41.13100848 C-7.5398303 39.26138129 -6.79906615 36.58437286 -6.80914965 34.097195 C-6.80712542 33.25241595 -6.80510119 32.40763689 -6.80301562 31.53725848 C-6.80397235 30.67539935 -6.80492907 29.81354021 -6.80591479 28.92556414 C-6.80659662 27.09967636 -6.80474216 25.27378616 -6.80057421 23.44790301 C-6.79522598 20.64299769 -6.80051911 17.83825252 -6.80692187 15.03335223 C-6.80626109 13.26382062 -6.80497993 11.49428911 -6.80301562 9.72475848 C-6.80503985 8.87997942 -6.80706408 8.03520037 -6.80914965 7.16482195 C-6.7801855 0.02057792 -6.7801855 0.02057792 0 0 Z " fill="#000000" transform="translate(3128.6702031195164,538.8689915239811)"/>
<path d="M0 0 C1.38013786 1.11869098 2.75555252 2.24324755 4.125 3.375 C5.05892578 4.10783203 5.05892578 4.10783203 6.01171875 4.85546875 C7.42432815 5.97831212 8.7820102 7.16975275 10.125 8.375 C10.125 9.035 10.125 9.695 10.125 10.375 C10.785 10.375 11.445 10.375 12.125 10.375 C30.99824066 31.17766117 39.01655998 58.12667752 38 85.875 C36.56530879 112.66645774 26.12836746 135.60721148 7.125 154.375 C6.09246094 155.40560547 6.09246094 155.40560547 5.0390625 156.45703125 C-14.30666968 174.53753622 -41.60940894 181.25450179 -67.48046875 180.625 C-90.65706657 179.58731933 -112.31842791 171.56941512 -129.875 156.375 C-130.79023438 155.67890625 -131.70546875 154.9828125 -132.6484375 154.265625 C-133.75058594 153.32976562 -133.75058594 153.32976562 -134.875 152.375 C-134.875 151.715 -134.875 151.055 -134.875 150.375 C-135.535 150.375 -136.195 150.375 -136.875 150.375 C-155.55821799 130.09433215 -163.67349905 102.16384724 -162.79785156 74.97998047 C-161.49407699 51.6880954 -153.57587955 31.44423642 -138.875 13.375 C-138.09125 12.323125 -137.3075 11.27125 -136.5 10.1875 C-102.04627212 -26.72720844 -39.61492903 -30.38682576 0 0 Z " fill="#000000" transform="translate(2929.875,1000.625)"/>
<path d="M0 0 C18.5789718 15.69291793 28.46645783 40.57392799 30.72265625 64.30078125 C32.85322556 92.71837471 24.99605283 118.91085997 7 141 C6.35289062 141.84691406 5.70578125 142.69382812 5.0390625 143.56640625 C-9.8726364 161.36331892 -34.42777816 171.4261745 -57 174 C-84.89265283 175.39019585 -111.40374723 170.79262461 -133.875 153.25 C-134.46394043 152.79036865 -135.05288086 152.3307373 -135.65966797 151.85717773 C-138.60869505 149.45217568 -140.4102953 147.42635383 -142 144 C-142.99 143.67 -143.98 143.34 -145 143 C-146.68237403 141.01282641 -148.19392 139.05994073 -149.6875 136.9375 C-150.12594238 136.31625244 -150.56438477 135.69500488 -151.01611328 135.05493164 C-163.71550098 116.5674033 -169.41994006 96.59028637 -169.3125 74.1875 C-169.30686035 72.95354492 -169.3012207 71.71958984 -169.29541016 70.44824219 C-168.92796036 42.8640405 -157.984594 19.62390959 -139.0625 -0.25 C-126.21379763 -12.64521876 -110.14148238 -19.89675217 -93 -24 C-91.99710938 -24.24621094 -90.99421875 -24.49242187 -89.9609375 -24.74609375 C-57.7314041 -31.32818156 -24.687285 -20.82018581 0 0 Z " fill="#000000" transform="translate(1523,1017)"/>
</svg>
