<svg width="31px" height="20px" viewBox="0 0 31 20" version="1.1" xmlns="http://www.w3.org/2000/svg" xmlns:xlink="http://www.w3.org/1999/xlink">
 <!-- Generator: Sketch 59 (86127) - https://sketch.com -->
 <title>
  Group 3
 </title>
 <desc>
  Created with Sketch.
 </desc>
 <defs>
  <polygon id="path-1" points="0 0.0003 30.9995 0.0003 30.9995 20 0 20">
  </polygon>
 </defs>
 <g id="Page-1" stroke="none" stroke-width="1" fill="none" fill-rule="evenodd">
  <g id="Group-3">
   <mask id="mask-2" fill="white">
    <use href="#path-1">
    </use>
   </mask>
   <g id="Clip-2">
   </g>
   <path d="M30.9995,0.3373 L30.9995,0.0023 L25.8585,0.0023 L25.8585,0.3373 L26.2815,0.3393 C27.3675,0.3393 27.6055,0.6113 27.6265,1.4983 L27.6265,10.1113 L17.9275,10.1113 L17.9275,1.6363 C17.9275,0.6683 18.1255,0.3583 19.1765,0.3393 L19.8085,0.3393 L19.8085,0.0033 L16.9815,0.0033 L14.6445,0.0033 L14.6445,0.3393 L14.6445,0.3403 C14.6555,0.3403 15.0635,0.3393 15.0635,0.3393 C16.1315,0.3533 16.3325,0.6583 16.3345,1.6233 L16.3345,19.5143 C14.8435,19.5143 14.5025,18.6313 13.8905,17.3273 C11.9855,13.2763 10.8235,10.8413 5.9585,10.2813 L6.9715,10.2813 C9.7235,10.2723 13.5865,9.2843 13.5865,5.1823 C13.5865,0.5133 8.2845,0.0043 6.9145,0.0003 C6.9145,0.0003 2.7475,0.0033 -0.0005,0.0033 L-0.0005,0.3393 L-0.0005,0.3403 C0.0145,0.3393 0.0835,0.3393 0.3435,0.3393 C1.4815,0.3393 1.6885,0.6373 1.6895,1.6303 L1.6895,18.4413 C1.6585,19.2423 1.4155,19.5083 0.4385,19.5223 L-0.0005,19.5233 L-0.0005,20.0003 L5.3045,20.0003 L5.3045,19.5233 L4.5395,19.5223 C3.4985,19.5023 3.3065,19.1893 3.3065,18.2263 L3.3025,18.2263 L3.3045,10.4923 L4.6825,10.4923 C6.1565,10.4923 7.4955,10.6053 8.4575,11.3783 C11.1485,13.5403 11.2995,20.0003 15.8035,20.0003 L19.9015,20.0003 L19.9015,19.5233 L19.2605,19.5233 C18.1365,19.5193 17.9275,19.2173 17.9275,18.2263 L17.9275,10.4893 L27.6265,10.4893 L27.6265,18.3633 C27.6055,19.2513 27.3675,19.5233 26.2815,19.5233 L25.8585,19.5233 L25.8585,20.0003 L30.9995,20.0003 L30.9995,19.5233 L30.5695,19.5233 C29.5305,19.5233 29.2665,19.2743 29.2285,18.4763 L29.2285,1.3853 C29.2665,0.5873 29.5305,0.3393 30.5695,0.3393 L30.9995,0.3373 Z M3.3055,10.1113 L3.3025,1.6113 C3.3055,0.6773 3.4985,0.3663 4.5015,0.3413 L5.4145,0.3413 L6.1865,0.3413 L6.1855,0.3413 C10.1305,0.3413 12.0005,2.3293 12.0005,5.2153 C12.0005,7.9453 9.9565,10.1123 6.9565,10.1123 L3.3055,10.1113 Z" id="Fill-1" fill="#FEFEFE" mask="url(#mask-2)">
   </path>
  </g>
 </g>
</svg>